<svg width="327" height="327" viewBox="0 0 327 327" fill="none" xmlns="http://www.w3.org/2000/svg">
<path d="M327 163.5C327 253.799 253.799 327 163.5 327C73.2014 327 0 253.799 0 163.5C0 73.2014 73.2014 0 163.5 0C253.799 0 327 73.2014 327 163.5ZM44.6554 163.5C44.6554 229.136 97.8639 282.345 163.5 282.345C229.136 282.345 282.345 229.136 282.345 163.5C282.345 97.8639 229.136 44.6554 163.5 44.6554C97.8639 44.6554 44.6554 97.8639 44.6554 163.5Z" fill="url(#paint0_linear_202_25)" fill-opacity="0.2"/>
<path d="M236 178C236 223.84 198.84 261 153 261C107.16 261 70 223.84 70 178C70 132.16 107.16 95 153 95C198.84 95 236 132.16 236 178ZM101.815 178C101.815 206.269 124.731 229.185 153 229.185C181.269 229.185 204.185 206.269 204.185 178C204.185 149.731 181.269 126.815 153 126.815C124.731 126.815 101.815 149.731 101.815 178Z" fill="url(#paint1_linear_202_25)" fill-opacity="0.2"/>
<defs>
<linearGradient id="paint0_linear_202_25" x1="163.5" y1="185.5" x2="163.5" y2="327" gradientUnits="userSpaceOnUse">
<stop stop-color="#386FFE"/>
<stop offset="1" stop-color="#386FFE" stop-opacity="0"/>
</linearGradient>
<linearGradient id="paint1_linear_202_25" x1="153" y1="95" x2="153" y2="310" gradientUnits="userSpaceOnUse">
<stop stop-color="#386FFE"/>
<stop offset="1" stop-color="#386FFE" stop-opacity="0"/>
</linearGradient>
</defs>
</svg>
